<svg xmlns="http://www.w3.org/2000/svg" width="1136" height="852" viewBox="0 0 1136 852">
<g>
<path d="M 271.33,688.43 C270.65,686.64 273.60,675.67 275.68,672.25 C277.27,669.63 280.78,669.27 281.69,671.63 C282.34,673.32 278.53,686.55 276.76,688.75 C275.35,690.50 272.06,690.31 271.33,688.43 M 283.67,688.33 C281.68,686.34 283.49,683.71 289.74,679.52 C296.77,674.80 298.80,674.20 300.80,676.20 C303.03,678.43 302.02,679.94 295.26,684.48 C288.98,688.69 285.26,689.93 283.67,688.33 M 318.99,663.99 C317.69,661.55 319.88,659.26 328.40,654.13 C333.00,651.36 334.27,650.98 335.50,652.00 C338.47,654.46 337.14,656.86 330.26,661.48 C322.80,666.48 320.59,666.98 318.99,663.99 M 284.97,648.46 C283.91,647.19 284.11,645.66 286.07,639.79 C288.85,631.45 290.82,628.61 293.18,629.52 C295.98,630.59 296.00,632.59 293.29,640.70 C290.15,650.12 288.00,652.12 284.97,648.46 M 355.75,641.92 C352.38,639.96 353.82,637.41 360.99,632.65 C364.83,630.09 368.60,628.00 369.37,628.00 C371.35,628.00 373.33,630.71 372.64,632.49 C372.17,633.72 358.95,643.07 357.82,642.97 C357.65,642.95 356.71,642.48 355.75,641.92 M 480.75,640.92 C478.42,639.56 478.52,636.33 480.93,635.04 C482.00,634.47 485.85,634.00 489.50,634.00 C496.95,634.00 500.00,635.16 500.00,638.00 C500.00,639.06 499.13,640.40 498.07,640.96 C495.59,642.29 483.05,642.26 480.75,640.92 M 440.50,640.13 C438.21,639.64 437.43,638.87 437.20,636.87 C436.80,633.43 437.92,633.12 447.91,633.87 C454.16,634.34 456.56,634.92 457.34,636.17 C459.30,639.28 456.47,641.01 449.63,640.88 C446.26,640.82 442.15,640.48 440.50,640.13 M 523.11,639.63 C522.41,638.79 521.99,637.29 522.17,636.30 C522.45,634.82 524.05,634.34 531.23,633.60 C540.13,632.68 543.00,633.39 543.00,636.50 C543.00,638.84 540.52,639.78 532.44,640.48 C525.82,641.05 524.16,640.90 523.11,639.63 M 402.20,638.01 C395.36,637.23 393.62,636.22 394.17,633.36 C394.47,631.77 395.64,631.46 402.09,631.21 C406.26,631.05 410.86,631.38 412.33,631.94 C415.16,633.01 415.85,635.75 413.80,637.80 C412.51,639.09 411.81,639.10 402.20,638.01 M 565.01,636.51 C562.34,633.30 564.93,631.58 573.87,630.65 C583.38,629.66 585.00,630.06 585.00,633.40 C585.00,636.31 584.11,636.65 573.95,637.54 C567.57,638.09 566.19,637.94 565.01,636.51 M 607.75,632.43 C606.06,630.71 607.00,627.04 609.25,626.58 C622.34,623.90 625.31,623.71 626.59,625.45 C628.21,627.67 627.36,629.91 624.49,631.00 C621.22,632.25 608.63,633.32 607.75,632.43 M 649.11,624.21 C647.43,621.07 649.80,619.32 658.26,617.48 C667.10,615.56 669.00,615.91 669.00,619.44 C669.00,621.61 668.30,622.14 663.75,623.40 C653.76,626.18 650.27,626.38 649.11,624.21 M 691.06,614.57 C688.63,611.64 690.31,609.75 697.50,607.31 C706.33,604.32 709.39,604.54 709.81,608.19 C710.14,611.03 710.49,610.86 693.89,615.59 C693.01,615.84 691.73,615.38 691.06,614.57 M 298.67,608.33 C297.49,607.16 298.03,603.67 300.48,596.50 C302.54,590.50 303.24,589.45 305.44,589.18 C309.37,588.70 309.64,591.32 306.60,600.64 C304.24,607.87 303.57,609.00 301.60,609.00 C300.36,609.00 299.03,608.70 298.67,608.33 M 731.06,600.58 C728.96,598.04 730.53,596.23 737.69,592.99 C745.51,589.44 749.34,589.37 749.82,592.77 C750.09,594.69 749.16,595.49 743.82,597.96 C735.21,601.95 732.64,602.48 731.06,600.58 M 770.25,583.34 C769.56,583.06 769.00,581.79 769.00,580.51 C769.00,578.64 770.50,577.36 776.56,574.03 C784.43,569.71 787.24,569.28 787.82,572.31 C788.31,574.85 786.55,576.59 779.50,580.54 C773.25,584.03 772.52,584.25 770.25,583.34 M 280.60,567.25 C275.86,560.30 274.88,556.64 277.50,555.64 C279.99,554.68 281.29,555.78 286.29,563.03 C290.33,568.86 290.92,570.29 290.01,571.98 C288.05,575.65 285.44,574.34 280.60,567.25 M 805.67,560.33 C803.67,558.34 805.50,555.18 811.24,550.70 C817.98,545.45 822.24,544.67 822.80,548.59 C823.02,550.16 821.41,551.99 816.42,555.84 C810.14,560.69 807.23,561.90 805.67,560.33 M 263.60,536.80 C261.38,535.55 255.81,523.33 256.21,520.56 C256.41,519.11 257.24,518.50 259.00,518.50 C261.13,518.50 262.05,519.64 265.22,526.24 C267.27,530.49 268.70,534.62 268.40,535.41 C267.63,537.41 265.70,537.97 263.60,536.80 M 837.67,532.33 C835.99,530.65 837.40,527.38 842.19,521.87 C846.35,517.09 847.89,515.96 849.94,516.20 C854.33,516.71 853.57,519.91 847.44,526.75 C842.32,532.46 839.44,534.11 837.67,532.33 M 863.30,497.34 C862.61,495.54 868.32,483.98 871.21,481.33 C873.12,479.58 875.73,480.14 876.63,482.48 C876.96,483.34 875.33,487.32 872.93,491.51 C869.51,497.49 868.17,499.00 866.29,499.00 C865.00,499.00 863.65,498.25 863.30,497.34 M 247.09,496.61 C246.01,495.31 242.00,482.25 242.00,480.05 C242.00,479.51 242.95,478.56 244.12,477.94 C247.11,476.34 248.33,477.97 251.03,487.23 C252.86,493.53 253.05,495.24 252.02,496.48 C250.44,498.37 248.60,498.42 247.09,496.61 M 882.32,459.39 C881.77,457.96 884.88,447.31 887.19,442.75 C888.31,440.53 891.61,440.48 892.83,442.67 C893.67,444.15 891.91,450.86 888.50,459.25 C887.60,461.45 883.15,461.56 882.32,459.39 M 237.70,455.56 C236.07,453.93 233.70,439.94 234.64,437.49 C235.03,436.47 236.18,436.00 237.81,436.20 C240.73,436.54 241.46,438.45 242.53,448.45 C243.15,454.21 243.02,454.92 241.18,455.91 C239.61,456.74 238.80,456.66 237.70,455.56 M 894.22,418.75 C892.90,417.15 895.40,402.17 897.31,400.27 C898.76,398.81 901.57,399.43 902.31,401.36 C902.88,402.86 900.72,417.03 899.66,418.75 C899.23,419.44 898.06,420.00 897.06,420.00 C896.06,420.00 894.78,419.44 894.22,418.75 M 232.67,413.25 C232.43,412.84 231.92,408.90 231.55,404.50 C230.78,395.47 231.99,392.23 235.68,393.40 C237.43,393.95 237.80,395.19 238.35,402.44 C238.71,407.06 238.73,411.55 238.39,412.42 C237.78,414.02 233.50,414.64 232.67,413.25 M 897.20,376.80 C896.54,376.14 895.99,374.68 895.99,373.55 C895.98,372.42 895.34,369.10 894.55,366.16 C893.77,363.22 893.36,360.22 893.64,359.49 C894.58,357.05 897.40,356.77 899.15,358.94 C901.04,361.27 903.60,373.98 902.67,376.41 C901.95,378.29 898.91,378.51 897.20,376.80 M 233.57,370.67 C231.91,369.46 231.85,368.66 232.87,361.10 C233.48,356.56 234.23,352.43 234.55,351.92 C235.47,350.43 239.73,350.87 240.37,352.51 C241.20,354.67 239.23,369.02 237.88,370.64 C236.48,372.33 235.85,372.34 233.57,370.67 M 882.20,329.80 C878.09,320.43 878.02,318.00 881.86,318.00 C884.47,318.00 885.02,318.67 887.96,325.40 C891.63,333.83 891.63,336.37 887.94,336.80 C885.66,337.06 885.07,336.34 882.20,329.80 M 240.41,328.56 C238.60,327.23 238.61,326.97 240.84,319.35 C243.44,310.44 244.83,308.49 247.89,309.46 C250.59,310.32 250.57,312.59 247.78,321.26 C245.35,328.79 243.39,330.73 240.41,328.56 M 867.26,299.28 C865.19,298.54 856.80,285.27 857.17,283.32 C857.38,282.23 858.55,281.38 860.08,281.20 C862.27,280.95 863.33,281.93 867.32,287.94 C869.89,291.81 872.00,295.64 872.00,296.45 C872.00,298.17 869.06,299.93 867.26,299.28 M 255.67,289.33 C254.21,287.87 255.20,285.04 259.59,278.18 C264.31,270.80 265.74,269.88 268.39,272.53 C269.95,274.09 269.64,276.33 267.49,279.00 C266.82,279.82 265.05,282.64 263.54,285.25 C261.57,288.69 260.19,290.00 258.57,290.00 C257.34,290.00 256.03,289.70 255.67,289.33 M 841.79,265.13 C839.10,264.14 830.00,253.39 830.00,251.20 C830.00,248.77 832.50,247.66 834.99,248.99 C837.66,250.42 846.00,260.45 846.00,262.24 C846.00,264.37 843.82,265.87 841.79,265.13 M 281.20,254.80 C279.18,252.78 279.77,251.67 286.38,245.12 C293.22,238.34 296.26,237.45 296.80,242.06 C297.03,244.06 295.80,245.84 291.12,250.30 C285.01,256.13 283.30,256.90 281.20,254.80 M 804.51,231.43 C801.22,228.94 798.18,226.29 797.76,225.54 C796.62,223.50 797.95,221.00 800.18,221.00 C803.18,221.00 816.00,230.59 816.00,232.84 C816.00,234.15 813.67,236.00 812.05,235.97 C811.20,235.96 807.81,233.91 804.51,231.43 M 313.01,226.51 C311.06,224.16 312.40,222.41 320.03,217.34 C325.68,213.59 327.50,212.82 328.83,213.66 C332.57,216.00 331.35,218.47 324.06,223.32 C316.48,228.36 314.92,228.81 313.01,226.51 M 768.76,208.20 C761.51,204.22 759.80,201.77 762.44,199.14 C763.96,197.62 764.57,197.76 770.74,201.00 C779.49,205.59 781.37,207.43 779.99,210.02 C778.51,212.78 776.51,212.45 768.76,208.20 M 349.36,204.50 C348.28,201.67 349.97,199.94 357.20,196.47 C365.65,192.42 366.56,192.30 368.03,195.06 C369.55,197.90 368.26,199.22 360.32,202.94 C353.06,206.34 350.22,206.74 349.36,204.50 M 730.50,189.92 C722.16,186.30 721.60,185.83 722.47,183.10 C723.36,180.28 726.00,180.45 734.50,183.90 C740.89,186.49 741.50,186.98 741.50,189.62 C741.50,193.59 739.10,193.66 730.50,189.92 M 389.46,188.59 C385.90,185.99 388.14,183.70 397.32,180.54 C405.87,177.59 406.17,177.56 407.52,179.39 C409.66,182.27 407.75,184.62 401.76,186.48 C398.87,187.37 395.29,188.49 393.82,188.96 C392.03,189.54 390.58,189.41 389.46,188.59 M 697.50,178.50 C696.95,178.32 693.21,177.21 689.19,176.04 C682.26,174.02 681.89,173.76 682.19,171.20 C682.46,168.81 682.90,168.51 686.00,168.62 C691.28,168.80 701.05,171.97 701.73,173.73 C702.73,176.34 700.07,179.35 697.50,178.50 M 429.31,175.36 C428.12,172.26 430.60,170.53 438.94,168.62 C446.29,166.94 447.33,166.90 448.68,168.25 C451.53,171.11 448.82,173.60 440.90,175.39 C431.93,177.41 430.09,177.41 429.31,175.36 M 649.62,167.40 C640.46,165.58 637.74,163.12 641.47,160.03 C642.62,159.07 644.49,159.07 650.22,160.06 C659.03,161.58 661.00,162.48 661.00,165.00 C661.00,166.57 658.03,169.33 656.82,168.88 C656.64,168.82 653.40,168.15 649.62,167.40 M 471.11,166.63 C470.24,165.59 470.44,162.01 471.36,162.00 C471.44,162.00 475.22,161.34 479.78,160.54 C488.33,159.04 490.48,159.21 491.35,161.48 C492.33,164.03 489.50,166.03 483.50,167.01 C475.36,168.34 472.45,168.25 471.11,166.63 M 513.90,161.38 C511.96,159.04 513.33,156.62 517.01,155.91 C529.71,153.46 534.97,154.37 533.57,158.79 C532.84,161.09 530.83,161.64 520.73,162.29 C516.86,162.54 514.62,162.25 513.90,161.38 M 604.10,161.12 C599.39,160.46 597.26,158.37 598.37,155.49 C598.98,153.90 599.99,153.77 607.70,154.32 C617.21,154.99 620.37,156.60 618.38,159.77 C617.19,161.67 611.68,162.19 604.10,161.12 M 556.63,158.74 C553.36,156.31 555.31,153.37 560.66,152.63 C571.56,151.14 576.00,152.15 576.00,156.14 C576.00,158.54 575.58,158.68 566.50,159.45 C560.38,159.97 558.06,159.81 556.63,158.74 Z" fill="rgba(0,0,0,1)"/>
</g>
</svg>